<svg width="65" height="61" viewBox="0 0 65 61" fill="none" xmlns="http://www.w3.org/2000/svg">
<path opacity="0.5" d="M64.067 0.528202L48.388 56.0718C48.3083 56.3239 47.9894 56.3996 47.8033 56.2231L37.3064 46.2641L45.1725 18.4292C45.2522 18.1771 45.013 17.9502 44.7473 18.0258L15.4089 25.4888L4.96509 15.5802C4.77907 15.4037 4.85879 15.1011 5.12454 15.0255L63.6418 0.124799C63.9075 0.0743735 64.1467 0.301288 64.067 0.528202Z" fill="#00B37E"/>
<path opacity="0.5" d="M37.3058 46.2636L33.2665 60.6348C33.1868 60.887 32.8679 60.9626 32.6818 60.7861L0.101381 29.9005C-0.0846408 29.724 -0.00491742 29.4215 0.260829 29.3458L15.4084 25.4883L37.3058 46.2636Z" fill="#00B37E"/>
<path d="M45.1711 18.4287L37.305 46.2636L15.4076 25.4883L44.7459 18.0253C45.0117 17.9497 45.2508 18.1766 45.1711 18.4287Z" fill="#00B37E"/>
</svg>
